HIERARCHY
ROOT Hips
{
  OFFSET 0 0 0
  CHANNELS 6 Xposition Yposition Zposition Zrotation Yrotation Xrotation
  JOINT LeftThigh
  {
    OFFSET 8.409438 0 -5.917753
    CHANNELS 3 Zrotation Yrotation Xrotation
    JOINT LeftLeg
    {
      OFFSET 0 0 -42.358652
      CHANNELS 3 Zrotation Yrotation Xrotation
      JOINT LeftFoot
      {
        OFFSET 0 0 -39.357303
        CHANNELS 3 Zrotation Yrotation Xrotation
      }
    }
  }
  JOINT RightThigh
  {
    OFFSET -8.409438 0 -5.917753
    CHANNELS 3 Zrotation Yrotation Xrotation
    JOINT RightLeg
    {
      OFFSET 0 0 -42.358652
      CHANNELS 3 Zrotation Yrotation Xrotation
      JOINT RightFoot
      {
        OFFSET 0 0 -39.357303
        CHANNELS 3 Zrotation Yrotation Xrotation
      }
    }
  }
  JOINT SpineLow
  {
    OFFSET 0 0 4.719101
    CHANNELS 3 Zrotation Yrotation Xrotation
    JOINT SpineMid
    {
      OFFSET 0 0 12.899191
      CHANNELS 3 Zrotation Yrotation Xrotation
      JOINT Chest
      {
        OFFSET 0 0 12.899191
        CHANNELS 3 Zrotation Yrotation Xrotation
        JOINT LeftShoulder
        {
          OFFSET 7.550562 1.41573 9.438202
          CHANNELS 3 Zrotation Yrotation Xrotation
          JOINT LeftArm
          {
            OFFSET 9.155056 0 4.247191
            CHANNELS 3 Zrotation Yrotation Xrotation
            JOINT LeftForearm
            {
              OFFSET 0 0 25.771955
              CHANNELS 3 Zrotation Yrotation Xrotation
              JOINT LeftHand
              {
                OFFSET 0 0 25.197169
                CHANNELS 3 Zrotation Yrotation Xrotation
              }
            }
          }
        }
        JOINT RightShoulder
        {
          OFFSET -7.550562 1.41573 9.438202
          CHANNELS 3 Zrotation Yrotation Xrotation
          JOINT RightArm
          {
            OFFSET -9.155056 0 4.247191
            CHANNELS 3 Zrotation Yrotation Xrotation
            JOINT RightForearm
            {
              OFFSET 0 0 -25.771955
              CHANNELS 3 Zrotation Yrotation Xrotation
              JOINT RightHand
              {
                OFFSET 0 0 -25.197169
                CHANNELS 3 Zrotation Yrotation Xrotation
              }
            }
          }
        }
        JOINT Neck
        {
          OFFSET 0 0 15.101124
          CHANNELS 3 Zrotation Yrotation Xrotation
          JOINT Head
          {
            OFFSET 0 0 11.325843
            CHANNELS 3 Zrotation Yrotation Xrotation
            End Site
            {
              OFFSET 0 0 14.157303
            }
          }
        }
      }
    }
  }
}
MOTION
Frames: 16
Frame Time: 0.0
0.0  89.887642  0.0  9.945774  -67.209714  -108.194691  22.633206  -10.60178  15.450679  14.651026  -0.309783  21.088902  5.117618  1.031367  1.72889  11.135678  5.619713  -10.643314  -3.815905  5.098386  11.592224  11.574361  0.504108  -1.047095  -0.045754  0.755548  0.551016  -0.107872  2.066133  1.505167  -0.107872  2.066133  1.505167  -26.47558  10.255008  -6.412237  143.868169  35.134506  -147.216003  -40.080132  16.260731  103.067969  62.479714  -5.547639  -31.121575  7.46127  -14.41265  12.867666  159.964565  26.195949  71.054496  0.414393  17.939133  -23.537791  103.289426  -0.541962  6.484412  23.911443  -2.890533  2.807194  17.943471  -2.061797  2.222267  
0.0  89.887642  0.0  12.690789  -68.722944  -110.384629  23.503462  -9.55309  15.47942  14.707749  -0.211234  21.213565  5.165946  1.072558  1.808833  11.714537  6.248105  -10.541621  -4.21272  4.927834  10.556172  11.609384  0.493643  -1.064635  -0.429478  0.77654  0.42986  -1.160457  2.130076  1.161512  -1.160457  2.130076  1.161512  -25.590496  11.033348  -6.175283  145.700151  34.888653  -146.787658  -41.1319  18.898701  105.043608  61.696673  -5.890608  -34.442737  8.028343  -14.274178  12.420338  158.605377  26.727563  68.87815  0.955152  20.022987  -24.323685  103.982688  -1.146419  6.339646  26.34359  -2.725245  3.040269  19.768066  -1.917058  2.402754  
0.0  89.887642  0.0  15.361903  -69.63943  -112.372831  24.578261  -8.728146  15.324461  14.378281  -0.015201  21.313939  5.028105  1.166841  1.777097  11.664081  7.137476  -10.593661  -4.37878  4.594142  9.633432  11.80743  0.498124  -1.058914  -0.819951  0.795195  0.174321  -2.236255  2.179198  0.449611  -2.236255  2.179198  0.449611  -24.525397  12.429719  -5.139261  147.547031  34.900504  -145.981071  -41.600268  22.186892  107.000942  63.156892  -4.098973  -38.976696  8.401835  -14.199107  12.392572  156.679833  27.134045  66.550493  1.623453  22.205684  -25.019573  106.068989  -2.660436  5.342794  28.427595  -2.670161  3.69873  21.333875  -1.83519  2.905458  
0.0  89.887642  0.0  17.449388  -69.783442  -113.88653  25.321253  -7.963463  15.20714  13.87753  0.184682  21.310183  4.973661  1.253808  1.836464  11.031479  8.149278  -10.599267  -4.453522  4.217879  8.8162  11.937371  0.480016  -1.065261  -1.197124  0.843994  -0.076478  -3.276105  2.302533  -0.250862  -3.276105  2.302533  -0.250862  -23.844372  13.847264  -4.1626  148.790968  34.863103  -145.539257  -43.608777  25.044778  107.24991  65.176878  -1.522781  -41.142223  8.533784  -14.123509  12.279684  154.199479  27.132372  64.269238  1.965241  24.848513  -25.706935  108.271532  -4.585255  3.693526  29.932936  -2.670669  4.281339  22.465599  -1.798287  3.351055  
0.0  89.887642  0.0  18.676879  -69.069516  -114.804651  25.434471  -7.410961  15.183135  13.337837  0.495385  21.382963  4.798938  1.266  1.890538  9.948619  9.189447  -10.29339  -4.496918  3.915737  8.036231  12.108691  0.443301  -1.054369  -1.524827  0.968867  -0.178034  -4.177112  2.635844  -0.547777  -4.177112  2.635844  -0.547777  -23.83744  14.627341  -3.824175  149.063011  34.969705  -145.89813  -45.266873  29.083454  107.000399  68.550318  0.837803  -41.907712  8.047049  -13.9031  11.726107  151.22618  27.888234  61.905094  2.618206  27.374676  -26.286705  109.749247  -6.354589  2.393165  30.616776  -2.63822  4.351013  22.978631  -1.765786  3.405293  
0.0  89.887642  0.0  19.106948  -67.558083  -115.002892  24.982918  -6.881407  15.06173  12.709748  0.742939  21.657739  4.517414  1.26764  1.92689  8.348533  10.225069  -9.862881  -4.592182  3.783193  7.294015  11.984008  0.40003  -1.112008  -1.774766  1.253556  -0.079228  -4.859246  3.418525  -0.308705  -4.859246  3.418525  -0.308706  -24.69055  14.138621  -4.067049  148.404657  35.64896  -146.799844  -47.307148  33.279252  106.005259  71.58873  2.608616  -41.790349  6.856903  -14.039019  10.244753  147.476954  29.669705  58.94956  3.791006  29.233261  -26.626565  109.886466  -7.848248  2.080849  30.345345  -2.626186  3.45889  22.770699  -1.803036  2.732394  
0.0  89.887642  0.0  19.022149  -65.377187  -114.735391  24.159592  -6.304014  14.80739  11.835567  0.911992  22.051154  4.172303  1.263105  1.949182  6.160751  11.32548  -9.455725  -4.640169  3.755212  6.676559  11.9983  0.402398  -1.129885  -1.996269  1.535032  -0.02109  -5.464696  4.190821  -0.184618  -5.464696  4.19082  -0.184618  -25.70048  13.852037  -4.185728  147.27916  36.31753  -148.017258  -48.772955  36.438551  104.876681  73.376714  3.505281  -41.332106  5.475591  -14.139234  9.275956  142.706179  31.662216  56.107068  4.741608  30.162291  -27.594424  108.546579  -9.109767  2.454543  29.591304  -2.717155  2.882892  22.202671  -1.903475  2.300007  
0.0  89.887642  0.0  18.474356  -62.7262  -114.079525  23.258698  -6.020109  14.450402  12.066967  1.382436  23.52684  2.570292  0.648756  0.969688  3.554407  12.438381  -9.156606  -4.700807  3.73314  6.260977  11.836618  0.427529  -1.194475  -2.146341  1.737824  -0.132463  -5.885611  4.734069  -0.516931  -5.885611  4.734069  -0.516931  -26.757048  14.501348  -3.621103  146.115797  36.672726  -149.531204  -48.771055  37.847594  104.38164  73.606084  3.571034  -40.252362  3.972149  -14.247199  9.20575  137.594432  32.595563  54.027418  4.404381  29.843904  -29.33042  106.326127  -9.953623  2.771243  28.211416  -3.014783  3.162433  21.169899  -2.1204  2.517106  
0.0  89.887642  0.0  17.502335  -59.760131  -113.038044  22.555665  -6.135216  13.896175  10.771065  1.800305  24.107351  2.031389  0.624167  0.9167  0.984304  13.52221  -8.924992  -4.858331  3.660729  6.075646  12.058184  0.549471  -1.242143  -2.48861  1.813405  -0.169806  -6.826788  4.933186  -0.651456  -6.826788  4.933186  -0.651456  -26.445058  15.286011  -3.936625  144.843046  36.829159  -151.229957  -47.83101  37.405831  103.899811  72.847346  2.963458  -38.04467  4.247937  -13.793021  8.339252  128.793013  34.138751  50.950534  5.702342  29.826516  -31.963226  104.550383  -10.456412  2.529494  27.470845  -2.738145  3.506759  20.615683  -1.900466  2.759502  
0.0  89.887642  0.0  16.227755  -56.600222  -111.704442  22.119868  -6.58678  13.252579  9.449637  2.322191  24.550916  1.43903  0.5851  0.853851  -1.173744  14.383287  -8.636671  -5.171818  3.668636  6.0631  12.294584  0.703532  -1.335468  -2.845369  1.879983  0.04544  -7.788464  5.135902  -0.09752  -7.788464  5.135902  -0.09752  -26.056264  15.016894  -5.419925  143.383949  37.025244  -153.075237  -47.723815  35.726508  103.019029  71.214748  3.100134  -33.92855  5.079199  -13.264857  6.08347  117.032879  34.921765  46.267593  7.465149  30.340997  -34.741301  104.535224  -10.988997  1.419994  26.720513  -2.084602  3.086813  20.049281  -1.431651  2.411614  
0.0  89.887642  0.0  14.822871  -53.284907  -110.143713  21.878249  -7.237703  12.362145  8.252687  2.90469  24.947788  0.740668  0.528712  0.753406  -2.910888  14.927077  -8.374681  -5.732254  3.926585  6.187771  12.375577  0.857815  -1.383804  -3.012642  1.910317  0.137206  -8.23974  5.22942  0.136505  -8.239741  5.22942  0.136505  -26.170838  15.010706  -6.091597  141.437738  37.192921  -154.966979  -48.540082  34.827505  101.351955  70.130202  4.100294  -27.830745  4.373128  -12.342722  4.940588  104.221137  34.276198  40.158061  9.088164  30.343559  -37.450343  106.239776  -12.05975  -0.407658  25.339015  -1.679591  3.135194  19.012091  -1.13193  2.425908  
0.0  89.887642  0.0  13.271145  -49.845788  -108.353058  21.659269  -8.089304  11.106178  7.16598  3.623627  25.390808  0.085906  0.491323  0.681936  -4.299451  15.10819  -8.22084  -6.666139  4.38603  6.582996  12.353147  1.077329  -1.439625  -3.025054  1.911151  0.147484  -8.27293  5.232972  0.16351  -8.27293  5.232972  0.16351  -26.910407  15.079694  -6.350065  139.632695  37.118304  -156.971749  -48.055088  36.064292  102.588441  70.825879  7.599619  -22.189194  2.327  -11.036763  4.822356  93.156168  31.725203  34.845718  9.26353  29.794396  -40.627535  107.488935  -13.250317  -2.353283  23.304719  -1.551898  3.4624  17.486915  -1.033612  2.660476  
0.0  89.887642  0.0  11.603637  -46.166969  -106.351723  21.115724  -9.044008  9.406529  6.215231  4.525576  26.019232  -0.440216  0.423279  0.631467  -5.68763  15.063063  -8.410004  -7.827976  4.902377  7.427647  12.258337  1.416197  -1.513154  -2.969796  1.873127  0.162072  -8.120081  5.131011  0.21247  -8.120081  5.131011  0.212469  -27.671086  14.985967  -6.403853  138.535289  36.861267  -158.551933  -46.997475  33.607401  104.841991  68.811629  12.586355  -15.695608  -0.402484  -9.550668  4.924645  84.797446  28.126818  32.116607  7.447953  28.10245  -45.877403  106.817819  -14.271495  -3.750035  20.954875  -1.482322  3.779518  15.725149  -0.983484  2.889383  
0.0  89.887642  0.0  9.940965  -42.237526  -104.314017  20.156787  -10.032628  7.310501  5.26941  5.588073  26.894448  -0.846967  0.374555  0.647804  -7.264026  14.967704  -9.024462  -8.882935  5.431959  8.841694  12.106976  1.771319  -1.633273  -2.867453  1.806558  0.187479  -7.837348  4.952269  0.297816  -7.837348  4.952269  0.297815  -27.699625  14.738423  -6.136177  137.687051  36.518239  -159.569933  -44.380482  28.821213  107.639563  66.942627  15.992206  -8.223458  -3.121625  -8.463753  4.208881  79.708722  23.264959  32.761458  3.201575  24.391599  -53.126258  104.259097  -15.400607  -4.993697  18.095506  -1.529084  3.982617  13.581465  -1.029961  3.035249  
0.0  89.887642  0.0  8.290613  -38.103741  -102.07514  18.75761  -11.014588  4.61075  4.318253  6.884227  28.10804  -1.172421  0.302279  0.661689  -9.139319  14.763612  -10.198757  -9.726907  5.955837  10.752815  11.865661  2.123755  -1.765786  -2.719158  1.634675  0.178794  -7.430905  4.48181  0.304566  -7.430905  4.48181  0.304566  -26.807318  14.624788  -5.785901  137.35106  36.135359  -160.063391  -42.593087  22.829252  109.379556  65.873536  17.454177  0.900409  -5.574851  -7.002856  4.610511  76.913296  20.446657  34.908275  -0.753981  16.510274  -60.943919  100.338711  -16.94569  -5.5211  14.890232  -1.510152  4.217086  11.178074  -1.030621  3.201698  
0.0  89.887642  0.0  6.757117  -33.627124  -99.726842  16.720675  -11.899159  1.318205  3.319657  8.445905  29.687852  -1.215485  0.227067  0.693513  -13.563435  13.92985  -12.595832  -8.495763  6.672222  13.199093  11.740062  2.559003  -1.856217  -2.513443  1.456168  0.182358  -6.866919  3.994279  0.34685  -6.866918  3.994278  0.34685  -25.431721  14.280625  -5.509061  138.082854  35.915125  -160.38225  -39.388334  17.613191  112.102989  65.637578  16.980364  7.60853  -8.98847  -5.219913  5.790079  76.024594  17.833227  36.703985  -4.121179  6.653535  -68.836395  96.543384  -18.657696  -7.083567  11.226179  -1.577889  4.135503  8.430234  -1.107945  3.131678  
